PathFileType	4	(X/Y/Z)	2_coords_data.trc
DataRate	CameraRate	NumFrames	NumMarkers	Units	OrigDataRate	OrigDataStartFrame	OrigNumFrames
30.0	30.0	9	21	m	30.0	40	59
Frame#	Time	THUMB_TIP	THUMB_IP	THUMB_MCP	THUMB_CMC	INDEX_TIP	INDEX_DIP	INDEX_PIP	INDEX_MCP	MIDDLE_TIP	MIDDLE_DIP	MIDDLE_PIP	MIDDLE_MCP	RING_TIP	RING_DIP	RING_PIP	RING_MCP	PINKY_TIP	PINKY_DIP	PINKY_PIP	PINKY_MCP	WRIST
X1	Y1	Z1	X2	Y2	Z2	X3	Y3	Z3	X4	Y4	Z4	X5	Y5	Z5	X6	Y6	Z6	X7	Y7	Z7	X8	Y8	Z8	X9	Y9	Z9	X10	Y10	Z10	X11	Y11	Z11	X12	Y12	Z12	X13	Y13	Z13	X14	Y14	Z14	X15	Y15	Z15	X16	Y16	Z16	X17	Y17	Z17	X18	Y18	Z18	X19	Y19	Z19	X20	Y20	Z20	X21	Y21	Z21
39	1.3	-0.016752799987792968	-0.03199049949645996	0.9180289916992187	-0.026312999725341797	-0.011274999618530273	0.937156005859375	-0.03992779922485352	0.0094868803024292	0.959385986328125	-0.05437850189208984	0.03909120178222656	0.9788740234375	0.041357498168945316	0.055027698516845705	0.8865830078125	0.018813899993896484	0.05039970016479492	0.8892119750976563	-0.004885509967803955	0.04612030029296875	0.8939290161132812	-0.04047389984130859	0.04293840026855469	0.9200960083007812	0.03968149948120117	0.08645429992675781	0.8961420288085937	0.01670789909362793	0.08169180297851562	0.8917940063476563	-0.01192609977722168	0.07597730255126953	0.89152001953125	-0.04743899917602539	0.06626010131835937	0.9191279907226563	0.031458700180053714	0.10420999908447266	0.9031370239257812	0.008816149711608887	0.10130799865722656	0.900593994140625	-0.019145500183105468	0.09624900054931641	0.9012849731445313	-0.051231998443603516	0.08582180023193359	0.9265560302734375	0.011296099662780761	0.12060399627685547	0.91660498046875	-0.008415550231933593	0.11842500305175781	0.916916015625	-0.027225500106811525	0.11351799774169923	0.9208259887695313	-0.050339500427246095	0.1019800033569336	0.9382680053710938	-0.08639409637451172	0.05800490188598633	0.99889697265625
40	1.3333333333333333	-0.017548700332641602	-0.031234500885009765	0.9176099853515625	-0.02691600036621094	-0.010613599777221679	0.9369450073242187	-0.04028680038452148	0.010028599739074707	0.9593699951171875	-0.0545547981262207	0.0394921989440918	0.9790150146484375	0.040922401428222656	0.05468780136108398	0.8848270263671875	0.018393299102783204	0.0503129997253418	0.8885040283203125	-0.005235169887542725	0.04634629821777344	0.8939110107421875	-0.040643699645996095	0.043488399505615234	0.9201279907226563	0.040014598846435545	0.08667739868164062	0.8947919921875	0.016942699432373046	0.08184940338134766	0.8913359985351562	-0.012004599571228028	0.07623290252685547	0.8916849975585938	-0.04740420150756836	0.06686720275878906	0.9193170166015625	0.031557100296020504	0.10459300231933594	0.9015	0.008888290405273438	0.10156700134277344	0.8998820190429687	-0.018972700119018554	0.09649089813232421	0.9013400268554688	-0.05099610137939453	0.08627570343017578	0.9267349853515625	0.011424599647521972	0.1213239974975586	0.91535400390625	-0.008189860343933106	0.11874600219726562	0.916593994140625	-0.02684720039367676	0.11378700256347657	0.9209500122070312	-0.049947200775146486	0.10238200378417969	0.9383410034179688	-0.0865970001220703	0.05863470077514649	0.9991209716796875
41	1.3666666666666667	-0.01782939910888672	-0.0305900993347168	0.9174910278320313	-0.02716600036621094	-0.01004419994354248	0.9368579711914062	-0.04050490188598633	0.010405799865722657	0.9592509765625	-0.05457939910888672	0.039848201751708986	0.9790399780273438	0.040129600524902345	0.054376998901367185	0.8844630126953125	0.01764069938659668	0.05007699966430664	0.8881790161132812	-0.00592080020904541	0.04619860076904297	0.8937919921875	-0.041328998565673826	0.04351440048217774	0.9202109985351562	0.039400798797607425	0.08614839935302734	0.8939310302734375	0.016239200592041016	0.08138369750976562	0.8905650024414062	-0.012576299667358399	0.07598670196533203	0.8912540283203125	-0.04798239898681641	0.06689369964599609	0.9193469848632813	0.030941600799560546	0.10407099914550781	0.900218017578125	0.008239509582519532	0.10116899871826172	0.8989420166015625	-0.019666999816894532	0.09627960205078125	0.9008209838867187	-0.051387001037597656	0.0863282012939453	0.926718017578125	0.01118299961090088	0.12098200225830077	0.9141950073242188	-0.008588359832763673	0.11848699951171875	0.9157860107421875	-0.027198799133300783	0.11360500335693359	0.9204760131835937	-0.050279499053955075	0.10243499755859375	0.9386840209960937	-0.08662850189208984	0.0590718994140625	0.9991069946289063
42	1.4	-0.017286800384521486	-0.028689300537109375	0.91627197265625	-0.02692799949645996	-0.008685330390930175	0.9360689697265625	-0.040449298858642575	0.011133899688720703	0.9589970092773438	-0.05450540161132812	0.04037469863891602	0.9789650268554687	0.038669700622558596	0.05489970016479492	0.883822021484375	0.01610770034790039	0.05049499893188476	0.8875349731445312	-0.0074667401313781735	0.04654759979248047	0.8931389770507813	-0.04248429870605469	0.043617698669433595	0.9196630249023438	0.037973400115966796	0.08592389678955079	0.8934739990234375	0.01479069995880127	0.08128240203857422	0.890155029296875	-0.013992300033569336	0.07600289916992188	0.8907210083007813	-0.049049198150634764	0.06700659942626953	0.9189099731445313	0.029669500350952147	0.10361399841308594	0.8997490234375	0.007044789791107178	0.1009219970703125	0.8982579956054687	-0.02105590057373047	0.0962354965209961	0.90010498046875	-0.052413299560546876	0.08641670227050781	0.9262919921875	0.009953720092773437	0.12091500091552734	0.912906005859375	-0.009938369750976563	0.1185009994506836	0.9147670288085937	-0.028408100128173828	0.1136780014038086	0.9194459838867187	-0.05110260009765625	0.102572998046875	0.9380250244140625	-0.08629810333251953	0.05936090087890625	0.9993900146484375
43	1.4333333333333333	-0.016809499740600586	-0.024396799087524415	0.9126099853515625	-0.02647979927062988	-0.005478340148925781	0.9334710083007812	-0.0399281005859375	0.012782400131225585	0.9576300048828125	-0.054282901763916015	0.040977298736572264	0.9783729858398438	0.037066699981689454	0.05724290084838867	0.8837550048828124	0.01452530002593994	0.052427600860595704	0.88706201171875	-0.009010869979858399	0.048005001068115234	0.8921229858398437	-0.043801498413085935	0.04419660186767578	0.918864013671875	0.03619789886474609	0.08687349700927735	0.8935180053710937	0.013073399543762207	0.08233380126953126	0.8897589721679687	-0.015715200424194335	0.07690460205078126	0.8901370239257812	-0.050593700408935544	0.06753279876708984	0.9182659912109375	0.028018800735473633	0.10421900177001953	0.8999910278320312	0.005332449913024903	0.10162899780273438	0.8979869995117188	-0.02268120002746582	0.09698519897460937	0.8995689697265625	-0.05409529876708984	0.08686920166015626	0.9258809814453125	0.007971089839935303	0.12131999969482422	0.9120399780273437	-0.011680100440979004	0.1190479965209961	0.913802001953125	-0.03014139938354492	0.11420500183105468	0.9185770263671875	-0.052723201751708984	0.10301999664306641	0.9377210083007812	-0.08606939697265625	0.059310298919677734	0.9989520263671875
44	1.4666666666666666	-0.017608100891113282	-0.018077699661254883	0.9067780151367187	-0.026810300827026366	-0.0007046999931335441	0.9294580078125	-0.03968880081176758	0.015337300300598145	0.9551290283203125	-0.05405820083618164	0.04200230026245117	0.9774030151367188	0.035628398895263674	0.06058349990844727	0.8849320068359375	0.01302340030670166	0.05527560043334961	0.8871079711914063	-0.010539500236511231	0.05029199981689453	0.8912919921875	-0.045379398345947265	0.045279300689697266	0.9177739868164062	0.03434489822387695	0.08842169952392578	0.8937369995117187	0.011485799789428711	0.08388140106201172	0.8897849731445312	-0.01732040023803711	0.07832820129394531	0.8898510131835937	-0.052259799957275394	0.06847160339355468	0.91739697265625	0.02644070053100586	0.10528299713134766	0.9003599853515625	0.003833950042724609	0.10276000213623047	0.898280029296875	-0.024023700714111328	0.0981719970703125	0.89943701171875	-0.055818599700927736	0.08761280059814452	0.9253359985351562	0.005815209865570069	0.12219300079345703	0.9111229858398437	-0.013744999885559082	0.11986900329589843	0.9131099853515625	-0.03216460037231445	0.1150979995727539	0.9178579711914062	-0.054313499450683596	0.10373600006103516	0.9369710083007813	-0.08612879943847657	0.05972200012207031	0.9984199829101562
45	1.5	-0.017584999084472655	-0.010224900245666503	0.901614013671875	-0.026838800430297852	0.005278500080108642	0.925531982421875	-0.039329498291015626	0.018913700103759767	0.9527969970703125	-0.053969898223876954	0.04350009918212891	0.9767100219726562	0.0338031005859375	0.06415979766845703	0.8871929931640625	0.011243900299072266	0.058284198760986325	0.8878770141601563	-0.012253199577331543	0.052774600982666016	0.8905969848632812	-0.047060501098632815	0.04645180130004883	0.916531005859375	0.03241070175170899	0.08991410064697265	0.89489501953125	0.009722089767456055	0.08550140380859375	0.8903070068359376	-0.019078800201416016	0.079908203125	0.8896619873046875	-0.05427289962768555	0.06966179656982421	0.9166859741210938	0.024451299667358397	0.1063219985961914	0.901822021484375	0.002114569902420044	0.10405699920654297	0.89893798828125	-0.02589629936218262	0.09965489959716797	0.8993170166015625	-0.05791839981079101	0.08870600128173828	0.9247470092773438	0.003576839923858642	0.12289499664306641	0.9110349731445313	-0.015850600242614747	0.12094200134277344	0.9126939697265625	-0.03451139831542969	0.11623600006103516	0.9172630004882812	-0.05648970031738281	0.1045989990234375	0.9361320190429687	-0.08617960357666016	0.0602145004272461	0.9980269775390626
46	1.5333333333333334	-0.016772899627685547	-0.002841379880905151	0.8981640014648438	-0.026354099273681642	0.011052599906921387	0.9229190063476562	-0.03899679946899414	0.022407499313354493	0.95110498046875	-0.05372499847412109	0.04515390014648438	0.9761680297851563	0.031309200286865235	0.06721540069580079	0.8901640014648438	0.008906240463256837	0.06101390075683594	0.8888820190429687	-0.014495599746704101	0.05503070068359375	0.889916015625	-0.04913990020751953	0.04746849822998047	0.9157509765625	0.029639299392700196	0.09078739929199219	0.8975599975585937	0.007318290233612059	0.08675039672851563	0.8913670043945312	-0.021427900314331054	0.0813678970336914	0.8892780151367188	-0.05693479919433594	0.07050910186767578	0.9157670288085937	0.02166200065612793	0.10674099731445312	0.9037109985351562	-0.000419007986783981	0.10509200286865235	0.8994810180664062	-0.028698999404907225	0.10111000061035157	0.8988380126953125	-0.06039049911499023	0.0896511001586914	0.9241519775390625	0.00085149198770523	0.1231729965209961	0.9112470092773437	-0.01841279983520508	0.12182599639892579	0.91222998046875	-0.03718259811401367	0.11741000366210938	0.916322998046875	-0.058929401397705077	0.1055479965209961	0.9355889892578125	-0.08621269989013672	0.06096379852294922	0.997864013671875
47	1.5666666666666667	-0.01949169921875	-0.000223949000239372	0.896093017578125	-0.028250999450683593	0.013288000106811523	0.9212369995117188	-0.04002590179443359	0.02412980079650879	0.9499710083007813	-0.05423249816894531	0.0464025993347168	0.9757319946289063	0.02889259910583496	0.06874030303955078	0.8921790161132812	0.006608190059661866	0.06244580078125	0.8896090087890625	-0.01669529914855957	0.056282798767089845	0.8895399780273437	-0.0511968994140625	0.04836100006103516	0.9151950073242188	0.027108699798583984	0.09097499847412109	0.8999329833984375	0.0053063201904296866	0.0873853988647461	0.892302978515625	-0.02348390007019043	0.08234809875488282	0.8890969848632813	-0.059063800811767576	0.07138849639892578	0.9153670043945312	0.019127599716186522	0.10680799865722657	0.9047249755859375	-0.002511480093002319	0.10570500183105469	0.8995380249023438	-0.031120899200439454	0.102125	0.8981329956054688	-0.06251979827880859	0.0906239013671875	0.9237260131835937	-0.001895409941673278	0.12353099822998047	0.9107490234375	-0.02109160041809082	0.12262999725341797	0.9112650146484375	-0.039930698394775394	0.11840399932861329	0.915218017578125	-0.06114640045166016	0.10661199951171875	0.9345360107421875	-0.08641310119628906	0.061910301208496096	0.997989990234375
